<svg width="20" height="20" viewBox="0 0 20 20" fill="none" xmlns="http://www.w3.org/2000/svg">
    <path d="M10 19.2812C4.88225 19.2812 0.71875 15.1174 0.71875 10C0.71875 4.88225 4.88225 0.71875 10 0.71875C15.1178 0.71875 19.2812 4.88225 19.2812 10C19.2812 15.1174 15.1178 19.2812 10 19.2812ZM10 1.75172C5.45116 1.75172 1.75 5.45184 1.75 10C1.75 14.5482 5.45116 18.2483 10 18.2483C14.5488 18.2483 18.25 14.5482 18.25 10C18.25 5.45184 14.5488 1.75172 10 1.75172Z" fill="#0094DF"/>
    <path d="M11.1791 14.82V9.01198V7.93433H7.73608V8.96695H8.76905V14.82H7.73608V15.8526H12.2121V14.82H11.1791Z" fill="#0094DF"/>
    <path d="M9.99337 7.03679C10.7727 7.03679 11.4045 6.40502 11.4045 5.62569C11.4045 4.84637 10.7727 4.2146 9.99337 4.2146C9.21404 4.2146 8.58228 4.84637 8.58228 5.62569C8.58228 6.40502 9.21404 7.03679 9.99337 7.03679Z" fill="#0094DF"/>
</svg>